<?xml version="1.0" standalone="no"?>
<!DOCTYPE svg PUBLIC "-//W3C//DTD SVG 20010904//EN"
 "http://www.w3.org/TR/2001/REC-SVG-20010904/DTD/svg10.dtd">
<svg version="1.0" xmlns="http://www.w3.org/2000/svg"
 width="800.000000pt" height="800.000000pt" viewBox="0 0 800.000000 800.000000"
 preserveAspectRatio="xMidYMid meet">
<metadata>
Created by potrace 1.14, written by Peter Selinger 2001-2017
</metadata>
<g transform="translate(0.000000,800.000000) scale(0.100000,-0.100000)"
fill="#000000" stroke="none">
<path d="M3799 5792 c-119 -114 -406 -392 -637 -618 -231 -226 -471 -456 -533
-511 -130 -115 -645 -612 -668 -645 -22 -31 -238 -240 -331 -319 -40 -35 -169
-157 -285 -270 -408 -399 -501 -488 -580 -554 -117 -99 -512 -474 -647 -616
l-118 -122 0 -70 0 -70 68 64 c126 120 777 742 882 844 58 55 148 141 200 190
134 126 251 237 525 500 132 127 359 345 505 485 146 140 317 304 380 365 63
61 345 334 625 605 281 271 579 561 663 644 84 83 156 151 160 151 4 0 133
-137 286 -305 154 -168 322 -350 375 -405 53 -55 240 -255 416 -445 432 -465
594 -638 696 -745 47 -49 186 -198 309 -330 123 -132 269 -287 324 -345 180
-188 279 -292 416 -440 128 -136 399 -424 910 -965 124 -130 229 -244 233
-251 18 -31 27 -10 27 64 l-1 77 -116 125 c-64 69 -153 163 -197 210 -308 326
-461 493 -458 502 1 5 -2 7 -7 4 -4 -3 -41 31 -81 77 -40 45 -152 165 -250
267 -97 102 -223 235 -281 296 -57 61 -206 219 -330 350 -124 131 -259 275
-300 320 -199 217 -444 480 -534 574 -78 81 -333 352 -400 424 -6 6 -114 126
-240 266 -126 140 -261 289 -300 330 -331 348 -478 500 -484 499 -3 0 -103
-93 -222 -207z"/>
<path d="M3830 5607 c-97 -94 -234 -228 -305 -297 -72 -69 -256 -247 -410
-396 -745 -719 -923 -890 -1350 -1299 -253 -242 -500 -478 -550 -525 -115
-108 -443 -420 -605 -575 -69 -66 -174 -167 -235 -225 -60 -58 -157 -151 -215
-207 -58 -56 -117 -111 -133 -123 l-27 -21 0 -355 0 -355 31 23 c17 13 37 27
44 32 16 12 64 -23 65 -46 0 -10 -32 -51 -70 -92 l-71 -74 1 -166 2 -166 106
97 c59 54 130 119 157 145 28 26 55 48 61 48 6 0 27 -15 47 -32 l37 -33 -28
-45 c-16 -25 -108 -117 -205 -205 l-177 -160 0 -198 0 -199 48 44 c27 23 160
144 296 267 136 122 249 221 250 220 2 -2 -131 -125 -295 -272 -242 -218 -299
-274 -299 -294 0 -32 -32 -57 320 256 157 140 293 261 302 269 16 13 23 10 73
-28 30 -23 55 -47 55 -52 0 -5 -11 -30 -24 -56 -18 -35 -65 -84 -182 -187 -87
-77 -205 -182 -261 -232 l-103 -93 312 0 313 1 325 289 c179 159 330 287 337
285 6 -2 19 6 30 18 l18 22 -25 -20 c-14 -11 -7 0 15 23 40 43 73 60 39 20
-10 -13 -4 -10 14 6 17 16 30 32 27 35 -6 6 45 61 57 61 5 0 6 -6 2 -12 -5 -9
-2 -8 9 1 10 8 15 16 12 19 -7 7 65 82 79 82 5 0 -1 -12 -15 -27 -23 -27 -23
-27 8 1 18 16 31 32 28 35 -6 6 45 61 57 61 5 0 6 -6 2 -12 -6 -9 -3 -9 9 0 9
8 15 19 14 25 -1 7 5 11 13 9 8 -2 12 0 7 4 -4 4 3 18 15 31 23 24 44 32 32
10 -4 -6 2 -4 14 7 12 10 19 22 17 26 -3 4 111 111 253 236 141 125 316 280
387 343 72 64 189 167 260 231 72 64 299 264 505 445 206 181 440 387 520 457
79 70 146 125 148 123 2 -2 -13 -19 -34 -37 -49 -42 -234 -206 -604 -533 -416
-369 -542 -480 -837 -740 -256 -225 -261 -230 -243 -250 9 -11 15 -26 13 -32
-14 -38 43 0 165 110 75 67 261 231 412 363 272 238 425 373 855 750 121 107
230 201 243 209 25 18 22 26 26 -87 0 -25 4 -49 8 -53 4 -4 6 7 6 24 -1 17 5
38 13 48 12 15 12 16 -1 8 -12 -7 -13 -6 -3 7 7 8 9 19 5 24 -30 37 118 -99
293 -268 56 -54 104 -98 108 -98 4 0 7 6 7 14 0 7 11 21 23 29 23 15 28 11
261 -215 165 -161 240 -227 246 -219 5 9 10 9 14 3 3 -6 1 -12 -5 -14 -6 -2
85 -98 203 -214 212 -209 395 -398 378 -392 -5 2 -79 71 -166 153 -86 83 -161
153 -166 156 -5 3 -73 68 -151 145 -78 77 -190 186 -249 243 l-107 104 -102
-89 c-56 -49 -113 -99 -128 -110 l-26 -22 -81 77 c-276 259 -343 325 -338 333
3 4 0 7 -7 6 -6 -2 -17 13 -22 32 -9 29 -11 31 -14 13 -4 -19 -207 -205 -557
-507 -163 -141 -208 -180 -295 -256 -646 -563 -905 -786 -918 -788 -8 -2 -40
18 -71 45 -31 27 -85 73 -119 102 l-62 53 -257 -229 c-427 -378 -575 -509
-630 -552 -11 -9 -23 -21 -25 -27 -2 -6 -39 -42 -82 -79 -42 -37 -77 -69 -77
-71 0 -14 29 5 100 66 45 38 83 70 85 70 7 0 164 -121 170 -131 4 -5 219 -9
549 -9 l542 0 50 42 c297 252 932 786 1422 1197 101 84 186 150 189 147 4 -4
2 -10 -3 -14 -5 -5 -108 -92 -229 -194 -335 -281 -412 -346 -676 -568 -244
-205 -696 -585 -713 -601 -6 -5 7 -9 31 -9 38 0 60 16 444 335 222 184 415
345 428 358 20 18 22 18 10 2 -8 -11 7 -2 34 19 26 21 47 41 47 44 0 3 -10 -3
-22 -14 l-23 -19 19 22 c17 21 20 21 42 6 13 -8 24 -20 24 -25 0 -5 4 -6 10
-3 5 3 10 -1 10 -9 0 -9 -4 -16 -9 -16 -5 0 -11 -18 -13 -40 -4 -47 -1 -50 13
-12 6 15 35 47 66 72 30 25 65 55 78 66 29 27 304 257 368 308 35 29 47 34 47
22 0 -10 4 -15 9 -11 11 6 78 -51 280 -241 42 -39 101 -93 131 -121 30 -27 73
-67 95 -89 22 -21 130 -120 240 -219 109 -99 259 -237 333 -308 l134 -127 586
0 587 0 -90 86 c-49 48 -211 204 -359 348 -147 143 -275 265 -282 269 -8 4
-14 12 -14 17 0 5 -27 73 -60 151 l-61 143 23 20 c13 12 39 33 58 47 l35 26
314 -306 c174 -168 428 -418 566 -554 l251 -248 67 3 68 3 -133 130 c-73 72
-234 230 -358 350 -124 120 -209 206 -190 190 35 -30 238 -226 535 -518 l161
-157 269 0 270 0 -220 217 c-121 120 -361 357 -533 528 l-314 310 -56 113 -56
114 34 29 c19 15 38 27 42 26 5 -1 217 -211 473 -466 255 -256 466 -463 468
-460 1 2 9 12 17 22 12 17 -24 56 -436 470 -247 248 -446 449 -442 447 4 -3
215 -212 470 -465 255 -253 529 -520 611 -593 81 -74 147 -137 147 -142 0 -4
-35 -35 -77 -67 -42 -32 -84 -63 -93 -70 -12 -10 37 -12 238 -13 l252 0 0 346
0 346 -288 297 c-437 449 -444 457 -491 538 -42 72 -44 76 -26 90 11 7 23 12
27 11 4 -2 152 -154 329 -338 289 -300 358 -368 335 -331 -15 23 25 23 57 -1
59 -45 57 -46 57 44 l0 83 -236 245 c-205 213 -324 356 -324 389 0 5 8 12 17
16 14 5 57 -35 188 -172 93 -98 211 -221 262 -273 l93 -95 0 175 0 176 -46 44
c-25 25 -127 133 -227 240 -197 213 -439 469 -612 650 -61 63 -268 282 -460
485 -192 204 -397 420 -455 480 -58 61 -141 148 -184 195 -44 47 -113 121
-155 165 -82 86 -337 359 -436 465 -33 35 -92 98 -130 140 -39 41 -98 104
-131 140 -99 106 -351 375 -474 506 -63 68 -239 258 -390 423 -151 165 -279
300 -285 300 -5 1 -89 -77 -185 -172z m190 -232 c5 3 58 -48 120 -112 99 -105
112 -116 124 -101 11 16 16 16 67 1 30 -8 56 -17 58 -19 6 -6 -27 -40 -82 -87
l-48 -40 -36 34 c-19 19 -75 77 -123 130 l-87 95 -325 -310 c-558 -533 -630
-601 -642 -604 -6 -1 -40 26 -75 61 l-63 65 63 21 c74 25 86 26 91 7 4 -17 13
-8 463 423 435 418 478 457 483 443 2 -7 7 -10 12 -7z m-10 -368 c0 -1 -24
-25 -52 -52 l-53 -50 50 53 c46 48 55 57 55 49z m11 -97 c5 0 9 10 9 23 0 18
10 11 62 -43 121 -127 304 -317 428 -445 69 -71 220 -229 335 -350 116 -121
213 -221 218 -223 4 -2 7 1 7 6 0 26 38 19 109 -19 42 -22 78 -42 80 -44 4 -4
-52 -54 -117 -105 l-44 -34 -41 44 c-37 41 -395 413 -683 710 -129 133 -249
261 -321 341 l-50 56 -104 -104 c-57 -57 -121 -118 -143 -135 l-39 -32 -68 75
c-38 41 -69 77 -69 81 0 10 121 48 132 42 5 -4 26 9 46 27 l37 34 -34 -37
c-19 -21 -32 -40 -29 -43 3 -4 64 48 134 115 127 119 129 120 132 90 2 -16 7
-30 13 -30z m870 -447 c23 -27 111 -120 194 -208 190 -201 506 -537 516 -548
3 -5 15 -3 26 3 16 10 32 7 96 -23 42 -20 77 -38 77 -41 0 -7 -84 -85 -112
-105 -25 -17 1 -42 -429 411 -330 348 -351 372 -393 457 -41 81 -46 101 -26
101 4 0 27 -21 51 -47z m-931 -28 c-24 -25 -46 -45 -49 -45 -3 0 15 20 39 45
24 25 46 45 49 45 3 0 -15 -20 -39 -45z m238 -191 c116 -122 118 -123 135
-103 18 20 18 20 76 -12 106 -58 103 -51 36 -120 -33 -33 -73 -70 -88 -81
l-29 -21 -159 163 -160 163 -37 -35 c-171 -159 -367 -342 -527 -488 -104 -96
-212 -196 -240 -221 -27 -26 -59 -56 -71 -66 -12 -10 -96 -88 -188 -173 -92
-85 -173 -158 -179 -162 -7 -3 -48 27 -97 72 -73 67 -83 80 -71 93 7 9 9 22 5
28 -5 9 -1 10 15 6 16 -4 41 6 84 34 69 43 79 46 97 24 15 -18 19 -14 190 145
63 59 317 295 564 523 l450 416 38 -30 c21 -17 91 -86 156 -155z m-398 42 c0
-2 -8 -10 -17 -17 -16 -13 -17 -12 -4 4 13 16 21 21 21 13z m-110 -99 c0 -2
-15 -16 -32 -33 l-33 -29 29 33 c28 30 36 37 36 29z m-650 -100 c0 -2 -10 -12
-22 -23 l-23 -19 19 23 c18 21 26 27 26 19z m48 -30 c22 -23 22 -24 5 -71 -11
-29 -35 -63 -63 -89 -334 -308 -448 -420 -443 -435 4 -10 2 -13 -5 -8 -14 8
-53 -24 -45 -37 3 -6 1 -7 -5 -3 -7 4 -65 -43 -143 -116 -73 -68 -158 -147
-191 -176 l-58 -54 -48 40 c-26 22 -59 53 -74 69 l-28 29 93 52 c83 47 93 51
104 36 11 -15 14 -14 41 7 24 20 255 236 762 717 36 34 68 61 71 62 3 0 15
-10 27 -23z m482 20 c0 -2 -19 -21 -42 -42 l-43 -40 40 43 c36 39 45 47 45 39z
m-170 -162 c-24 -25 -46 -45 -49 -45 -3 0 15 20 39 45 24 25 46 45 49 45 3 0
-15 -20 -39 -45z m1651 8 c13 -16 12 -17 -3 -4 -17 13 -22 21 -14 21 2 0 10
-8 17 -17z m-2546 -13 c17 -19 17 -21 -6 -59 -13 -22 -117 -127 -230 -233
-113 -106 -290 -273 -392 -370 -103 -98 -193 -178 -200 -178 -7 0 -39 27 -71
59 l-59 59 90 46 c76 38 92 43 104 31 15 -15 -11 -38 384 340 99 94 216 206
260 248 44 42 85 77 91 77 6 0 19 -9 29 -20z m355 7 c0 -2 -12 -14 -27 -28
l-28 -24 24 28 c23 25 31 32 31 24z m450 -80 c0 -1 -26 -27 -57 -57 l-58 -55
55 58 c50 53 60 62 60 54z m-580 -40 c0 -1 -28 -29 -62 -62 l-63 -60 60 63
c55 58 65 67 65 59z m1304 -6 c3 -5 0 -8 -8 -7 -12 1 -142 -113 -358 -313 -27
-24 -48 -41 -48 -38 0 9 392 367 401 367 4 0 10 -4 13 -9z m718 -823 l656
-660 23 21 23 22 -279 282 -280 282 305 -302 c168 -166 349 -339 403 -384 53
-46 97 -85 97 -88 0 -3 -48 -42 -106 -85 l-105 -79 -82 79 c-45 43 -111 108
-147 144 -36 36 -332 329 -657 653 l-591 587 -188 -170 c-103 -94 -191 -169
-195 -168 -10 4 -149 137 -176 169 l-22 26 85 68 c75 59 87 65 102 53 9 -7 20
-17 23 -22 4 -5 87 64 185 152 l177 161 46 -40 c25 -23 342 -338 703 -701z
m-1592 729 c0 -1 -24 -25 -52 -52 l-53 -50 50 53 c46 48 55 57 55 49z m-580
-40 c0 -1 -24 -25 -52 -52 l-53 -50 50 53 c46 48 55 57 55 49z m429 -103 c-41
-44 -205 -190 -184 -164 11 14 25 28 30 32 19 14 -16 8 -47 -8 -16 -9 -27 -11
-24 -5 4 6 -1 11 -11 12 -11 0 -13 3 -5 6 6 2 9 9 6 15 -4 6 2 8 16 3 15 -5
20 -4 16 4 -4 6 -2 11 3 11 6 0 11 -4 11 -9 0 -6 12 -6 30 0 16 6 27 15 24 20
-3 5 8 9 23 9 21 0 42 13 78 50 51 52 77 70 34 24z m-589 -47 c0 -1 -26 -27
-57 -57 l-58 -55 55 58 c50 53 60 62 60 54z m244 -6 c3 -5 -2 -15 -12 -22 -15
-12 -16 -12 -5 2 7 9 10 19 6 22 -3 4 -4 7 0 7 3 0 8 -4 11 -9z m76 -61 c0 -5
-2 -10 -4 -10 -3 0 -8 5 -11 10 -3 6 -1 10 4 10 6 0 11 -4 11 -10z m1735 -90
c55 -55 97 -100 95 -100 -3 0 -50 45 -105 100 -55 55 -97 100 -95 100 3 0 50
-45 105 -100z m-1755 10 c12 -8 9 -10 -12 -10 -16 0 -28 5 -28 10 0 13 20 13
40 0z m-460 -3 c0 -2 -15 -16 -32 -33 l-33 -29 29 33 c28 30 36 37 36 29z
m410 -37 c0 -5 -5 -10 -11 -10 -5 0 -7 5 -4 10 3 6 8 10 11 10 2 0 4 -4 4 -10z
m2526 -104 c43 -46 232 -240 420 -432 187 -192 362 -373 388 -401 27 -29 52
-50 57 -47 5 3 7 10 4 15 -4 5 1 12 9 15 16 6 241 -149 241 -166 0 -5 -39 -38
-86 -74 l-86 -65 -299 302 c-663 671 -661 669 -692 732 -73 147 -81 171 -64
189 9 9 19 16 23 16 3 0 42 -38 85 -84z m-336 -263 c0 -8 -13 5 -110 105
l-105 107 108 -105 c59 -57 107 -106 107 -107z m1211 -129 c173 -180 347 -362
388 -406 60 -65 76 -77 83 -64 5 9 13 16 18 16 11 0 207 -128 215 -140 5 -8
-129 -120 -145 -120 -4 0 -117 114 -251 252 -134 139 -307 318 -384 398 -192
199 -187 192 -234 281 -42 78 -47 109 -17 109 7 0 155 -147 327 -326z m519
-157 c244 -257 284 -295 294 -281 11 14 24 9 114 -50 l103 -66 -33 -28 c-18
-16 -49 -40 -69 -55 l-36 -27 -43 47 c-24 27 -95 102 -159 168 -277 287 -487
510 -506 535 -11 15 -33 53 -50 84 -26 48 -28 58 -15 66 17 11 0 28 400 -393z
m-3420 389 c0 -2 -8 -10 -17 -17 -16 -13 -17 -12 -4 4 13 16 21 21 21 13z
m842 -327 c-37 -32 -666 -587 -877 -774 -149 -132 -386 -342 -528 -467 -141
-126 -261 -228 -267 -228 -32 0 18 50 270 271 85 74 288 252 450 395 162 142
419 367 570 500 151 132 298 261 325 286 32 30 52 42 57 35 4 -7 4 -15 0 -18z
m-2829 -81 c8 -12 7 -24 -3 -43 -8 -15 -118 -124 -245 -243 -126 -119 -261
-246 -300 -283 -166 -157 -218 -204 -226 -207 -10 -4 -129 95 -129 107 0 3 47
35 105 69 87 53 109 61 121 51 12 -10 20 -8 42 13 45 41 380 357 489 461 103
99 125 110 146 75z m387 -68 c0 -25 -47 -87 -107 -143 -37 -34 -104 -96 -148
-138 -44 -41 -134 -125 -200 -185 -66 -61 -192 -177 -279 -257 -88 -81 -164
-147 -169 -147 -10 0 -140 107 -144 119 -1 3 51 41 117 83 112 72 121 76 132
58 11 -17 18 -12 88 53 42 40 164 153 271 252 106 99 235 220 287 268 l93 88
29 -21 c17 -12 30 -25 30 -30z m410 16 c0 -2 -8 -10 -17 -17 -16 -13 -17 -12
-4 4 13 16 21 21 21 13z m68 -49 l32 -33 -22 -51 c-18 -39 -56 -80 -178 -193
-85 -79 -207 -191 -270 -250 -323 -299 -574 -520 -592 -520 -13 0 -157 123
-171 146 -4 7 -3 15 3 19 5 3 10 2 10 -4 0 -10 188 116 218 146 18 18 39 16
51 -4 10 -18 50 14 241 192 41 39 124 115 184 170 61 55 186 171 279 258 94
86 173 157 176 157 4 0 22 -15 39 -33z m561 -40 c-25 -23 -263 -240 -530 -481
-266 -242 -485 -445 -487 -453 -2 -7 2 -13 8 -13 6 0 8 -5 4 -12 -5 -7 -3 -8
7 -2 14 9 412 366 683 614 329 300 385 350 393 350 15 -1 93 -78 93 -92 0 -32
-43 -139 -61 -152 -11 -7 -36 -29 -57 -47 -20 -19 -138 -125 -262 -235 -124
-110 -241 -215 -260 -234 -19 -18 -102 -93 -185 -166 -82 -73 -215 -192 -295
-263 -80 -72 -149 -131 -154 -131 -11 0 -196 159 -196 169 0 11 245 224 267
232 15 6 334 292 933 836 74 67 137 123 140 122 3 0 -15 -19 -41 -42z m1776
-27 c27 -27 47 -50 44 -50 -3 0 -27 23 -54 50 -27 28 -47 50 -44 50 3 0 27
-22 54 -50z m-3045 16 c0 -2 -8 -10 -17 -17 -16 -13 -17 -12 -4 4 13 16 21 21
21 13z m480 -49 c0 -2 -10 -12 -22 -23 l-23 -19 19 23 c18 21 26 27 26 19z
m-610 -70 c0 -2 -19 -21 -42 -42 l-43 -40 40 43 c36 39 45 47 45 39z m520 -10
c0 -1 -26 -27 -57 -57 l-58 -55 55 58 c50 53 60 62 60 54z m-190 -182 c-24
-25 -46 -45 -49 -45 -3 0 15 20 39 45 24 25 46 45 49 45 3 0 -15 -20 -39 -45z
m-500 32 c0 -2 -12 -14 -27 -28 l-28 -24 24 28 c23 25 31 32 31 24z m3725
-107 c55 -55 97 -100 95 -100 -3 0 -50 45 -105 100 -55 55 -97 100 -95 100 3
0 50 -45 105 -100z m-3315 -3 c0 -1 -24 -25 -52 -52 l-53 -50 50 53 c46 48 55
57 55 49z m-600 -71 c0 -2 -8 -10 -17 -17 -16 -13 -17 -12 -4 4 13 16 21 21
21 13z m460 -59 c0 -1 -26 -27 -57 -57 l-58 -55 55 58 c50 53 60 62 60 54z
m-380 -77 c0 -5 -5 -10 -11 -10 -5 0 -7 5 -4 10 3 6 8 10 11 10 2 0 4 -4 4
-10z m70 -44 c0 -3 -4 -8 -10 -11 -5 -3 -10 -1 -10 4 0 6 5 11 10 11 6 0 10
-2 10 -4z m165 -16 c-10 -11 -21 -18 -23 -15 -3 3 3 12 14 20 27 20 30 18 9
-5z m3920 -40 c33 -33 57 -60 54 -60 -2 0 -31 27 -64 60 -33 33 -57 60 -54 60
2 0 31 -27 64 -60z m-4180 -20 c3 -5 -1 -10 -9 -10 -9 0 -16 5 -16 10 0 6 4
10 9 10 6 0 13 -4 16 -10z m6336 -655 c210 -214 386 -391 390 -393 5 -2 9 3 9
11 0 9 6 17 13 20 12 4 53 -18 72 -39 32 -35 106 -85 116 -78 7 4 9 3 5 -4 -3
-6 19 -31 51 -58 32 -25 58 -50 58 -55 0 -5 -38 -36 -85 -70 l-85 -61 -443
448 c-409 414 -447 455 -490 534 -26 47 -49 88 -50 93 -4 9 40 47 50 44 4 -1
179 -177 389 -392z m-1840 368 c13 -16 12 -17 -3 -4 -17 13 -22 21 -14 21 2 0
10 -8 17 -17z m134 -133 c21 -22 37 -40 34 -40 -3 0 -23 18 -44 40 -21 22 -37
40 -34 40 3 0 23 -18 44 -40z m-1518 -120 c-3 -52 -7 -62 -33 -81 -16 -12 -43
-34 -60 -48 -17 -14 -6 -3 23 25 50 47 54 54 60 107 8 75 16 73 10 -3z m1778
-130 c66 -66 117 -120 115 -120 -3 0 -59 54 -125 120 -66 66 -117 120 -115
120 3 0 59 -54 125 -120z m-1915 -34 c0 -6 -380 -329 -400 -341 -8 -4 6 11 33
34 26 24 47 51 47 63 0 18 21 48 34 48 2 0 6 -7 8 -16 2 -12 41 16 138 99 138
119 140 120 140 113z m-3660 -111 c-24 -25 -46 -45 -49 -45 -3 0 15 20 39 45
24 25 46 45 49 45 3 0 -15 -20 -39 -45z m4330 -62 c0 -7 -78 56 -87 70 -4 6
14 -6 40 -27 26 -21 47 -40 47 -43z m-4450 -48 c-24 -25 -46 -45 -49 -45 -3 0
15 20 39 45 24 25 46 45 49 45 3 0 -15 -20 -39 -45z m7481 22 c-6 -8 -8 -17
-4 -20 3 -4 1 -7 -5 -7 -14 0 -14 2 -6 24 3 9 11 16 16 16 7 0 6 -5 -1 -13z
m-6831 -21 c0 -2 -8 -10 -17 -17 -16 -13 -17 -12 -4 4 13 16 21 21 21 13z
m6900 -30 c0 -2 -9 -6 -20 -9 -11 -3 -20 -1 -20 4 0 5 9 9 20 9 11 0 20 -2 20
-4z m-2881 -123 c2 -2 2 -5 0 -8 -3 -2 -25 17 -50 43 l-44 47 45 -40 c25 -22
47 -41 49 -42z m66 -65 l50 -52 -51 44 c-44 38 -63 60 -51 60 1 0 25 -23 52
-52z m105 -101 c0 -6 -9 -2 -20 8 -11 10 -20 23 -20 28 0 6 9 2 20 -8 11 -10
20 -23 20 -28z m129 -116 c18 -17 29 -31 24 -31 -5 0 -38 30 -73 67 -59 62
-52 56 49 -36z m123 -117 c31 -39 16 -28 -37 28 -34 35 -39 43 -16 24 19 -15
43 -38 53 -52z m59 -51 c13 -16 12 -17 -3 -4 -17 13 -22 21 -14 21 2 0 10 -8
17 -17z"/>
<path d="M4019 2448 c0 -2 -3 -18 -5 -35 -4 -27 -2 -33 13 -33 11 0 14 3 7 8
-7 4 -10 19 -9 35 2 15 1 27 -1 27 -2 0 -4 -1 -5 -2z"/>
<path d="M4010 2355 c0 -8 4 -15 8 -15 5 0 9 7 9 15 0 8 -4 15 -9 15 -4 0 -8
-7 -8 -15z"/>
<path d="M4020 1080 c0 -5 5 -10 10 -10 6 0 10 5 10 10 0 6 -4 10 -10 10 -5 0
-10 -4 -10 -10z"/>
<path d="M4020 1037 c0 -11 1 -18 3 -16 1 2 8 11 15 20 9 13 9 16 -3 16 -8 0
-15 -9 -15 -20z"/>
<path d="M4020 918 c0 -50 3 -89 6 -85 3 3 6 9 6 14 0 4 5 14 11 22 9 11 9 13
1 8 -18 -10 -11 52 6 63 13 8 12 10 -3 10 -14 0 -16 6 -12 30 3 17 1 30 -5 30
-6 0 -10 -36 -10 -92z"/>
<path d="M4021 714 c0 -11 3 -14 6 -6 3 7 2 16 -1 19 -3 4 -6 -2 -5 -13z"/>
<path d="M4020 661 c0 -25 6 -27 13 -6 4 8 2 17 -3 20 -6 4 -10 -3 -10 -14z"/>
<path d="M4013 528 c-2 -16 1 -18 10 -9 7 7 8 14 1 21 -6 6 -10 2 -11 -12z"/>
<path d="M1128 273 c-268 -238 -299 -268 -275 -271 40 -5 212 148 507 451 46
48 81 87 78 87 -4 0 -143 -120 -310 -267z"/>
<path d="M3995 478 c-11 -11 -90 -79 -175 -150 -85 -71 -175 -147 -200 -168
-25 -20 -78 -64 -119 -96 l-74 -59 282 -3 c155 -1 407 -1 558 0 l276 3 -89 79
c-78 69 -188 170 -372 340 -29 28 -51 55 -48 63 8 20 -16 14 -39 -9z"/>
<path d="M2940 137 l-156 -132 153 -3 c84 -1 222 -1 307 0 l154 3 -148 133
c-82 72 -150 132 -152 131 -2 0 -73 -60 -158 -132z"/>
</g>
</svg>
